# xmcd
#
# Track frame offsets: 
#        150
#        12052
#        26556
#        40530
#        49591
#        59623
#        70888
#        80217
#        87567
#        98428
#        107611
#        118740
#        127586
#        140585
#
# Disc length: 1984 seconds
#
# Revision: 1
# Processed by: cddbd v1.5.2PL0 Copyright (c) Steve Scherf et al.
# Submitted via: ExactAudioCopy v1.0b3
#
DISCID=b107be0e
DTITLE=The Rolling Stones - Past Masters CD 2
DYEAR=2016
DGENRE=Rock and Roll
TTITLE0=Carol
TTITLE1=It's All Over Now
TTITLE2=Everybody Needs Somebody to Love
TTITLE3=Not Fade Away
TTITLE4=I Just Want to Make Love to You
TTITLE5=Around and Around
TTITLE6=I'm Moving On
TTITLE7=Time is on My Side
TTITLE8=Confessin' the Blues
TTITLE9=If You Need Me
TTITLE10=Little by Little
TTITLE11=Hi-Heel Sneakers
TTITLE12=Mona (I Need You Baby)
TTITLE13=Down the Road Apiece
EXTD=
EXTT0=
EXTT1=
EXTT2=
EXTT3=
EXTT4=
EXTT5=
EXTT6=
EXTT7=
EXTT8=
EXTT9=
EXTT10=
EXTT11=
EXTT12=
EXTT13=
PLAYORDER=
